<svg width="25" height="25" viewBox="0 0 25 25" fill="none" xmlns="http://www.w3.org/2000/svg">
<mask id="mask0_323_34" style="mask-type:alpha" maskUnits="userSpaceOnUse" x="0" y="0" width="25" height="25">
<rect x="0.313721" y="0.15686" width="24" height="24" fill="#D9D9D9"/>
</mask>
<g mask="url(#mask0_323_34)">
<path d="M4.31372 22.1569C3.76372 22.1569 3.29305 21.9612 2.90172 21.5699C2.50972 21.1779 2.31372 20.7069 2.31372 20.1569V9.15686C2.31372 8.60686 2.50972 8.13586 2.90172 7.74386C3.29305 7.35253 3.76372 7.15686 4.31372 7.15686H9.31372V4.15686C9.31372 3.60686 9.50972 3.13586 9.90172 2.74386C10.2931 2.35253 10.7637 2.15686 11.3137 2.15686H13.3137C13.8637 2.15686 14.3347 2.35253 14.7267 2.74386C15.1181 3.13586 15.3137 3.60686 15.3137 4.15686V7.15686H20.3137C20.8637 7.15686 21.3347 7.35253 21.7267 7.74386C22.1181 8.13586 22.3137 8.60686 22.3137 9.15686V20.1569C22.3137 20.7069 22.1181 21.1779 21.7267 21.5699C21.3347 21.9612 20.8637 22.1569 20.3137 22.1569H4.31372ZM4.31372 20.1569H20.3137V9.15686H15.3137C15.3137 9.70686 15.1181 10.1775 14.7267 10.5689C14.3347 10.9609 13.8637 11.1569 13.3137 11.1569H11.3137C10.7637 11.1569 10.2931 10.9609 9.90172 10.5689C9.50972 10.1775 9.31372 9.70686 9.31372 9.15686H4.31372V20.1569ZM6.31372 18.1569H12.3137V17.7069C12.3137 17.4235 12.2344 17.1609 12.0757 16.9189C11.9177 16.6775 11.6971 16.4902 11.4137 16.3569C11.0804 16.2069 10.7431 16.0945 10.4017 16.0199C10.0597 15.9445 9.69705 15.9069 9.31372 15.9069C8.93039 15.9069 8.56805 15.9445 8.22672 16.0199C7.88472 16.0945 7.54705 16.2069 7.21372 16.3569C6.93039 16.4902 6.70972 16.6775 6.55172 16.9189C6.39305 17.1609 6.31372 17.4235 6.31372 17.7069V18.1569ZM14.3137 16.6569H18.3137V15.1569H14.3137V16.6569ZM9.31372 15.1569C9.73039 15.1569 10.0844 15.0109 10.3757 14.7189C10.6677 14.4275 10.8137 14.0735 10.8137 13.6569C10.8137 13.2402 10.6677 12.8862 10.3757 12.5949C10.0844 12.3029 9.73039 12.1569 9.31372 12.1569C8.89705 12.1569 8.54305 12.3029 8.25172 12.5949C7.95972 12.8862 7.81372 13.2402 7.81372 13.6569C7.81372 14.0735 7.95972 14.4275 8.25172 14.7189C8.54305 15.0109 8.89705 15.1569 9.31372 15.1569ZM14.3137 13.6569H18.3137V12.1569H14.3137V13.6569ZM11.3137 9.15686H13.3137V4.15686H11.3137V9.15686Z" fill="#1C1B1F"/>
</g>
</svg>
